<svg width="18" height="18" viewBox="0 0 18 18" fill="none" xmlns="http://www.w3.org/2000/svg">
<path d="M15.8063 10.6312L7.3688 2.19373C5.96255 0.731231 3.6563 0.731231 2.1938 2.13748C0.731299 3.54373 0.731299 5.90623 2.1938 7.31248L2.25005 7.36873L3.82505 8.99998L4.61255 8.21248L2.9813 6.58123C2.02505 5.62498 2.02505 3.99373 2.9813 3.03748C3.93755 2.08123 5.5688 2.02498 6.52505 2.98123L6.5813 3.03748L14.9625 11.4187C15.975 12.375 15.975 14.0062 15.0188 14.9625C14.0625 15.975 12.4313 15.975 11.475 15.0187L11.4188 14.9625L7.2563 10.8C6.6938 10.2375 6.75005 9.33748 7.2563 8.83123C7.52596 8.58696 7.87682 8.45167 8.24067 8.45167C8.60453 8.45167 8.95538 8.58696 9.22505 8.83123L11.5313 11.1375L12.3188 10.35L9.9563 7.98748C9.71683 7.76102 9.43491 7.58419 9.12679 7.4672C8.81866 7.3502 8.49042 7.29535 8.161 7.30581C7.83157 7.31627 7.50748 7.39182 7.20739 7.52813C6.90731 7.66443 6.63717 7.85878 6.41255 8.09998C5.51255 9.05623 5.51255 10.575 6.41255 11.5875L10.6313 15.8062C12.0375 17.2687 14.3438 17.2687 15.8063 15.8625C17.2688 14.4562 17.2688 12.0937 15.8063 10.6312C15.8063 10.6312 15.8063 10.6875 15.8063 10.6312V10.6312Z" fill="#F9F9F9"/>
</svg>
