<svg width="28" height="28" viewBox="0 0 28 28" fill="none" xmlns="http://www.w3.org/2000/svg">
<circle cx="14" cy="14" r="14" fill="#E85050" fill-opacity="0.1"/>
<circle cx="14" cy="14" r="13.5" stroke="#E85050" stroke-opacity="0.2"/>
<path d="M8.75 10.5H9.91667H19.25" stroke="#E85050" stroke-linecap="round" stroke-linejoin="round"/>
<path d="M18.0837 10.5V18.6666C18.0837 18.976 17.9607 19.2728 17.742 19.4916C17.5232 19.7104 17.2264 19.8333 16.917 19.8333H11.0837C10.7742 19.8333 10.4775 19.7104 10.2587 19.4916C10.0399 19.2728 9.91699 18.976 9.91699 18.6666V10.5M11.667 10.5V9.33329C11.667 9.02387 11.7899 8.72713 12.0087 8.50833C12.2275 8.28954 12.5242 8.16663 12.8337 8.16663H15.167C15.4764 8.16663 15.7732 8.28954 15.992 8.50833C16.2107 8.72713 16.3337 9.02387 16.3337 9.33329V10.5" stroke="#E85050" stroke-linecap="round" stroke-linejoin="round"/>
<path d="M12.833 13.4166V16.9166" stroke="#E85050" stroke-linecap="round" stroke-linejoin="round"/>
<path d="M15.167 13.4166V16.9166" stroke="#E85050" stroke-linecap="round" stroke-linejoin="round"/>
</svg>
