<svg width="20" height="20" viewBox="0 0 20 20" fill="none" xmlns="http://www.w3.org/2000/svg">
<g clip-path="url(#clip0_18746_5038)">
<path opacity="0.8" d="M14.3334 11.6666C14.5643 11.6666 14.6797 11.6666 14.7732 11.7179C14.8504 11.7602 14.9222 11.8396 14.9566 11.9206C14.9982 12.0188 14.9877 12.1232 14.9668 12.3322C14.8581 13.4156 14.4852 14.4595 13.8765 15.3704C13.144 16.4668 12.1028 17.3212 10.8846 17.8258C9.66647 18.3304 8.32602 18.4624 7.03282 18.2052C5.73961 17.948 4.55172 17.313 3.61937 16.3807C2.68702 15.4483 2.05208 14.2604 1.79485 12.9672C1.53761 11.674 1.66964 10.3336 2.17422 9.11541C2.67881 7.89724 3.53329 6.85605 4.62962 6.12351C5.54055 5.51484 6.58446 5.14197 7.66784 5.03327C7.87681 5.01231 7.98129 5.00182 8.07948 5.04348C8.16049 5.07785 8.23988 5.14968 8.28216 5.22684C8.33342 5.32039 8.33342 5.4358 8.33342 5.66664V11C8.33342 11.2333 8.33342 11.35 8.37883 11.4391C8.41878 11.5175 8.48252 11.5813 8.56092 11.6212C8.65005 11.6666 8.76673 11.6666 9.00009 11.6666H14.3334Z" stroke="#F9F9F9" stroke-width="2" stroke-linecap="round" stroke-linejoin="round"/>
<path d="M11.6667 2.33333C11.6667 2.1025 11.6667 1.98708 11.718 1.89353C11.7603 1.81637 11.8397 1.74454 11.9207 1.71017C12.0189 1.66851 12.1234 1.67899 12.3323 1.69995C13.856 1.85279 15.2884 2.52692 16.3808 3.61929C17.4732 4.71166 18.1473 6.14408 18.3001 7.66775C18.3211 7.87672 18.3316 7.98121 18.2899 8.0794C18.2555 8.16041 18.1837 8.2398 18.1065 8.28208C18.013 8.33333 17.8976 8.33333 17.6667 8.33333L12.3334 8.33333C12.1001 8.33333 11.9834 8.33333 11.8943 8.28792C11.8159 8.24797 11.7521 8.18423 11.7122 8.10583C11.6667 8.0167 11.6667 7.90002 11.6667 7.66667L11.6667 2.33333Z" stroke="#F9F9F9" stroke-width="2" stroke-linecap="round" stroke-linejoin="round"/>
</g>
<defs>
<clipPath id="clip0_18746_5038">
<rect width="20" height="20" fill="white"/>
</clipPath>
</defs>
</svg>
