<?xml version="1.0" encoding="iso-8859-1"?>
<!-- Uploaded to: SVG Repo, www.svgrepo.com, Generator: SVG Repo Mixer Tools -->
<svg version="1.1" id="Layer_1" xmlns="http://www.w3.org/2000/svg" xmlns:xlink="http://www.w3.org/1999/xlink" 
	 viewBox="0 0 507.906 507.906" xml:space="preserve">
<rect x="89.9" y="42.653" style="fill:#FFFFFF;" width="325.8" height="250.6"/>
<rect x="28.2" y="429.953" style="fill:#56ACE0;" width="451.4" height="35.3"/>
<polygon style="fill:#FFC10D;" points="84,321.453 38.4,401.753 469.5,401.753 423.9,321.453 "/>
<path style="fill:#194F82;" d="M281.7,382.053h-57.9c-7.8,0-14.1-6.3-14.1-14.1s6.3-14.1,14.1-14.1h57.9c7.8,0,14.1,6.3,14.1,14.1
	S289.5,382.053,281.7,382.053z"/>
<path style="fill:#56ACE0;" d="M118.1,70.753v61.1h52.1c7.8,0,14.1,6.3,14.1,14.1s-6.3,14.1-14.1,14.1h-52.1v28.1h30.8
	c7.8,0,14.1,6.3,14.1,14.1s-6.3,14.1-14.1,14.1h-30.8v48.5h269.4v-194.1H118.1z"/>
<path d="M250.9,153.953h0.1C251.4,153.853,251,153.853,250.9,153.953z"/>
<path d="M252.5,182.253c-0.1,0-0.1,0-0.2,0C252.1,182.253,252.3,182.253,252.5,182.253z"/>
<g>
	<path style="fill:#194F82;" d="M252.8,126.753c8.4,0,15.3,6.9,15.3,15.3c0,5.9,4.8,10.7,10.7,10.7s10.7-4.8,10.7-10.7
		c0-16.5-11-30.6-26-35.2v-6.7c0-5.9-4.8-10.7-10.7-10.7c-5.9,0-10.7,4.8-10.7,10.7v6.7c-15.1,4.6-26,18.6-26,35.2
		c0,20.3,16.5,36.8,36.8,36.8c0.3,0,0,0-0.2,0c7.7,0.8,15.5,7.2,15.5,15.1c0,8.4-6.9,15.3-15.3,15.3c-8.4,0-15.3-6.9-15.3-15.3
		c0-5.9-4.8-10.7-10.7-10.7s-10.9,4.8-10.9,10.7c0,16.5,11,30.6,26,35.2v6.6c0,5.9,4.8,10.7,10.7,10.7c5.9,0,10.7-4.8,10.7-10.7
		v-6.6c15.1-4.6,26-18.6,26-35.2c0-20.3-17.9-36.7-38.1-36.7c-0.2,0-0.1,0-0.1,0c-7.8-0.7-13.9-7.3-13.9-15.2
		C237.5,133.653,244.4,126.753,252.8,126.753z"/>
	<path style="fill:#194F82;" d="M505.1,407.353l-60.8-106.9c-0.1-0.2-0.3-0.4-0.4-0.6v-271.3c0-7.8-6.3-14.1-14.1-14.1h-354
		c-7.8,0-14.1,6.3-14.1,14.1v275.1l-59.9,105.2c-1.2,2.2-1.8,4.6-1.8,7l0,0v63.5c0,7.8,6.3,14.1,14.1,14.1h479.6
		c7.8,0,14.1-6.3,14.1-14.1v-62.1c0-0.5,0.1-0.9,0.1-1.4C508,412.653,506.9,409.653,505.1,407.353z M479.6,465.253H28.2v-35.3h451.4
		V465.253z M38.4,401.753l45.6-80.3h339.9l45.6,80.2H38.4V401.753z M89.9,42.653h325.8v250.6H89.9V42.653z"/>
</g>
</svg>